<?xml version="1.0" standalone="no"?>
<!DOCTYPE svg PUBLIC "-//W3C//DTD SVG 20010904//EN"
 "http://www.w3.org/TR/2001/REC-SVG-20010904/DTD/svg10.dtd">
<svg version="1.0" xmlns="http://www.w3.org/2000/svg"
 width="260.000000pt" height="260.000000pt" viewBox="0 0 260.000000 260.000000"
 preserveAspectRatio="xMidYMid meet">
<metadata>
Created by potrace 1.11, written by Peter Selinger 2001-2013
</metadata>
<g transform="translate(0.000000,260.000000) scale(0.100000,-0.100000)"
fill="#000000" stroke="none">
<path d="M0 1300 l0 -1300 890 0 890 0 0 85 0 85 85 0 85 0 0 -85 0 -85 80 0
80 0 0 85 0 85 80 0 80 0 0 80 0 80 80 0 80 0 0 80 0 80 -80 0 -80 0 0 80 0
80 80 0 80 0 0 85 0 85 85 0 85 0 0 80 0 80 -85 0 -85 0 0 80 0 80 85 0 85 0
0 80 0 80 -85 0 -85 0 0 85 0 85 85 0 85 0 0 80 0 80 -85 0 -85 0 0 80 0 80
-80 0 -80 0 0 80 0 80 80 0 80 0 0 85 0 85 -80 0 -80 0 0 80 0 80 -80 0 -80 0
0 80 0 80 -80 0 -80 0 0 80 0 80 -85 0 -85 0 0 -80 0 -80 -80 0 -80 0 0 80 0
80 -810 0 -810 0 0 -1300z m1950 1060 l0 -80 80 0 80 0 0 -80 0 -80 80 0 80 0
0 -85 0 -85 -80 0 -80 0 0 -80 0 -80 80 0 80 0 0 -80 0 -80 80 0 80 0 0 -80 0
-80 -80 0 -80 0 0 -85 0 -85 80 0 80 0 0 -80 0 -80 -80 0 -80 0 0 -80 0 -80
80 0 80 0 0 -80 0 -80 -80 0 -80 0 0 -85 0 -85 -80 0 -80 0 0 -80 0 -80 80 0
80 0 0 -80 0 -80 -80 0 -80 0 0 -80 0 -80 -80 0 -80 0 0 80 0 80 80 0 80 0 0
80 0 80 -80 0 -80 0 0 80 0 80 80 0 80 0 0 85 0 85 -80 0 -80 0 0 80 0 80 80
0 80 0 0 80 0 80 -80 0 -80 0 0 80 0 80 80 0 80 0 0 85 0 85 -80 0 -80 0 0 80
0 80 -85 0 -85 0 0 80 0 80 -80 0 -80 0 0 80 0 80 80 0 80 0 0 85 0 85 -80 0
-80 0 0 80 0 80 80 0 80 0 0 80 0 80 85 0 85 0 0 -80z m-1140 -160 l0 -80 80
0 80 0 0 80 0 80 80 0 80 0 0 -80 0 -80 85 0 85 0 0 -85 0 -85 -85 0 -85 0 0
-80 0 -80 85 0 85 0 0 -80 0 -80 -85 0 -85 0 0 80 0 80 -80 0 -80 0 0 -80 0
-80 -80 0 -80 0 0 80 0 80 -80 0 -80 0 0 -80 0 -80 -85 0 -85 0 0 80 0 80 85
0 85 0 0 80 0 80 -85 0 -85 0 0 85 0 85 85 0 85 0 0 80 0 80 80 0 80 0 0 -80z
m0 -980 l0 -80 80 0 80 0 0 80 0 80 80 0 80 0 0 -80 0 -80 85 0 85 0 0 80 0
80 80 0 80 0 0 -80 0 -80 80 0 80 0 0 -80 0 -80 -80 0 -80 0 0 -80 0 -80 80 0
80 0 0 -85 0 -85 -80 0 -80 0 0 -80 0 -80 80 0 80 0 0 -80 0 -80 -80 0 -80 0
0 80 0 80 -80 0 -80 0 0 -80 0 -80 -85 0 -85 0 0 80 0 80 -80 0 -80 0 0 -80 0
-80 -80 0 -80 0 0 80 0 80 -80 0 -80 0 0 -80 0 -80 -85 0 -85 0 0 80 0 80 85
0 85 0 0 80 0 80 -85 0 -85 0 0 85 0 85 85 0 85 0 0 80 0 80 -85 0 -85 0 0 80
0 80 85 0 85 0 0 80 0 80 80 0 80 0 0 -80z"/>
<path d="M1780 2200 l0 -80 85 0 85 0 0 -85 0 -85 -85 0 -85 0 0 -80 0 -80 85
0 85 0 0 -80 0 -80 80 0 80 0 0 -80 0 -80 80 0 80 0 0 80 0 80 -80 0 -80 0 0
80 0 80 -80 0 -80 0 0 80 0 80 80 0 80 0 0 85 0 85 -80 0 -80 0 0 80 0 80 -85
0 -85 0 0 -80z"/>
<path d="M2110 1220 l0 -80 80 0 80 0 0 80 0 80 -80 0 -80 0 0 -80z"/>
<path d="M2110 900 l0 -80 80 0 80 0 0 80 0 80 -80 0 -80 0 0 -80z"/>
<path d="M650 2035 l0 -85 80 0 80 0 0 -80 0 -80 80 0 80 0 0 80 0 80 80 0 80
0 0 85 0 85 -80 0 -80 0 0 -85 0 -85 -80 0 -80 0 0 85 0 85 -80 0 -80 0 0 -85z"/>
<path d="M650 1060 l0 -80 80 0 80 0 0 -80 0 -80 -80 0 -80 0 0 -85 0 -85 80
0 80 0 0 -80 0 -80 80 0 80 0 0 80 0 80 80 0 80 0 0 -80 0 -80 85 0 85 0 0 80
0 80 80 0 80 0 0 85 0 85 -80 0 -80 0 0 80 0 80 80 0 80 0 0 80 0 80 -80 0
-80 0 0 -80 0 -80 -85 0 -85 0 0 80 0 80 -80 0 -80 0 0 -80 0 -80 -80 0 -80 0
0 80 0 80 -80 0 -80 0 0 -80z m480 -160 l0 -80 85 0 85 0 0 -85 0 -85 -85 0
-85 0 0 85 0 85 -80 0 -80 0 0 -85 0 -85 -80 0 -80 0 0 85 0 85 80 0 80 0 0
80 0 80 80 0 80 0 0 -80z"/>
</g>
</svg>
